<svg width="101" height="28" viewBox="0 0 101 28" xmlns="http://www.w3.org/2000/svg">
    <g fill="#FFF" fill-rule="evenodd">
        <path d="M8.609 1.099c-1.867.82-3.436 1.964-4.708 3.395A15.013 15.013 0 0 0 .995 9.418 16.764 16.764 0 0 0 0 15.108c.003 1.949.34 3.752.995 5.398A11.172 11.172 0 0 0 3.9 24.7c1.272 1.15 2.841 1.993 4.708 2.58.958.302 1.934.505 2.977.617.196-1 .38-2.002.505-3.015.112-.911.186-1.852.154-2.778v-.034c-.06-1.712-.476-3.375-1.68-4.717-.87-.968-1.955-1.718-3.019-2.467-.456-.322-.92-.649-1.365-.998a12.297 12.297 0 0 1-.651-.544 8.398 8.398 0 0 1-.792-.799 6.65 6.65 0 0 1-.512-.67c-.349-.525-.608-1.118-.705-1.738a1.053 1.053 0 0 1-.035-.402v-.013.003c.017-.375.242-.655.669-.45.307.148.52.44.767.676.401.38.921.617 1.45.76 2.13.577 4.52-.242 6.427 1.066.485.33.787.74 1.109 1.17l.059.078c.099.129.287.34.515.37h.01c.01 0 .024 0 .034-.005.01 0 .02.005.035.005h.01c.228-.03.416-.241.515-.37l.06-.079c.321-.429.623-.839 1.108-1.17 1.906-1.307 4.297-.493 6.426-1.065.535-.143 1.05-.385 1.45-.76.248-.237.46-.528.768-.676.168-.079.381-.108.525.01.08.07.125.17.146.285.015.078.022.16.023.242v.063l-.002.064-.005.064-.006.062a2.883 2.883 0 0 1-.03.193l-.014.062-.015.066-.017.064-.018.063-.021.069-.019.058c-.013.04-.027.081-.042.121l-.02.055-.029.07-.023.057-.029.067-.024.056a5.084 5.084 0 0 1-.112.234 7.73 7.73 0 0 1-.034.066l-.024.045a6.316 6.316 0 0 1-.038.07l-.02.036-.056.1v.001a5.65 5.65 0 0 1-.298.462 6.49 6.49 0 0 1-.339.434 8.703 8.703 0 0 1-.771.785 13.823 13.823 0 0 1-.615.512l-.153.118c-.73.557-1.506 1.067-2.254 1.61-.374.27-.741.55-1.092.848-.351.298-.686.615-.995.96-1.025 1.145-1.48 2.522-1.629 3.968l-.017.183c-.005.056-.01.113-.013.17-.076 1.064.005 2.157.134 3.214.117.958.29 1.888.473 2.82a17.655 17.655 0 0 0 3.565-.96c1.867-.715 3.446-1.623 4.738-2.763 1.292-1.14 2.272-2.452 2.936-3.972.66-1.517.991-3.143.994-4.904a14.285 14.285 0 0 0-.994-5.191C28 8.204 27.02 6.63 25.728 5.204c-1.292-1.42-2.871-2.63-4.738-3.577C19.124.685 17.173.132 14.772.018a17.264 17.264 0 0 0-.79-.018c-2.01 0-3.72.373-5.373 1.099M87.449 9.53a.436.436 0 0 0-.45.432v8.066c0 .279.173.452.45.452.276 0 .448-.173.448-.452V9.962a.436.436 0 0 0-.448-.432m-21.95 0a.436.436 0 0 0-.45.432v8.066c0 .279.172.452.45.452.276 0 .448-.173.448-.452V9.962a.436.436 0 0 0-.449-.432m-9.503 0a.436.436 0 0 0-.45.432V15.7l-2.34-5.89-.008-.02a.475.475 0 0 0-.536-.256.433.433 0 0 0-.335.43v8.065c0 .279.172.452.448.452.277 0 .449-.173.449-.452v-5.726l2.356 5.888c.053.174.218.29.416.29h.064l.024-.005a.433.433 0 0 0 .36-.447V9.962a.436.436 0 0 0-.448-.432m-14.127 8.065c-.56 0-1.132-.19-1.132-1.599v-3.982c0-1.41.572-1.6 1.132-1.6.588 0 1.132.194 1.132 1.6v3.982c0 .791-.134 1.6-1.132 1.6m0-8.066c-1.308 0-2.03.882-2.03 2.484v3.982c0 .912.22 1.564.67 1.994.324.325.781.49 1.36.49.372 0 .919-.05 1.378-.487.452-.43.671-1.083.671-1.997v-3.982c0-1.602-.728-2.484-2.049-2.484m33.464.865h.875c.94 0 1.29.433 1.29 1.599 0 1.354-.474 1.618-1.29 1.618h-.875v-3.217zm2.334 3.7c.083-.066.16-.14.231-.222l.004-.005c.34-.411.513-1.035.513-1.855 0-1.67-.716-2.483-2.188-2.483h-1.323a.431.431 0 0 0-.43.432v8.066c0 .253.19.452.43.452.276 0 .448-.173.448-.452v-3.511h.875c.857 0 1.31.47 1.31 1.36v2.15c0 .254.188.453.429.453.277 0 .449-.173.449-.45l.02-2.133c0-.69-.211-1.254-.627-1.673a2.114 2.114 0 0 0-.141-.13zm23.312-4.253a.455.455 0 0 0-.229-.26.391.391 0 0 0-.287-.052.467.467 0 0 0-.308.222l-.006.011-1.477 3.169-1.472-3.157-.012-.023c-.131-.22-.351-.289-.576-.18a.435.435 0 0 0-.233.25.467.467 0 0 0 .005.334l1.812 3.849-1.806 3.834-.006.015a.438.438 0 0 0 .161.545c.049.046.126.081.25.081a.44.44 0 0 0 .402-.26l1.475-3.162 1.464 3.14c.056.17.218.282.413.282.048 0 .13 0 .212-.056a.455.455 0 0 0 .218-.256.423.423 0 0 0-.03-.337l-1.783-3.826 1.784-3.826a.423.423 0 0 0 .029-.337"/>
    </g>
</svg>
