<svg width="150" height="45" viewBox="0 0 150 45" xmlns="http://www.w3.org/2000/svg">
    <g fill="none" fill-rule="evenodd">
        <path fill="#EE0979" d="m1 4 146-4 3 45H0z"/>
        <g fill="#31004C" fill-rule="nonzero">
            <path d="M21.988 36.344c7.344 0 11.592-6.12 11.592-13.032 0-5.688-3.024-9.684-8.964-9.684-1.188 0-2.34.144-3.492.324-5.796.972-8.964 6.984-8.964 12.492 0 5.94 3.816 9.9 9.828 9.9zM22.6 18.02c.504 0 1.008.108 1.512.108.432 0 .828-.108 1.26-.108 1.908 0 2.484 4.032 2.484 5.472 0 3.24-1.872 8.784-5.76 8.784-3.276 0-4.176-3.348-4.176-6.048 0-2.448 1.62-8.208 4.68-8.208zM44.171 29.684c.216 0 .324.108.468.252.828.936 1.512 1.908 2.304 2.808.9 1.008 1.656 1.98 3.06 2.196.216.036.396.036.612.036 1.332 0 2.772-.72 2.772-2.232 0-.504-.144-1.008-.396-1.44-.54-.864-1.476-.972-2.088-1.692-.576-.648-3.6-4.212-3.6-4.896 0-.648 3.888-5.184 4.536-5.904.648-.72 2.088-1.584 2.088-2.628 0-1.368-1.728-2.052-2.844-2.052h-.324c-2.772.288-5.76 5.472-6.444 5.472-.504 0-.828-1.116-.828-1.512 0-.396.144-.792.144-1.224 0-1.332-1.908-1.872-2.988-1.872-1.728 0-2.916 1.008-2.916 2.808 0 2.52 3.06 6.408 3.06 6.912 0 .324-1.116 1.872-1.296 2.16l-1.872 2.88c-.9 1.368-2.916 3.276-2.916 4.968 0 1.404 1.656 1.98 2.844 1.98.864 0 1.836-.288 2.376-1.008.972-1.296 1.836-2.664 2.7-4.032.36-.576.684-1.152 1.08-1.692.108-.144.288-.288.468-.288zM67.657 23.816c-.504 0-.792-.288-.792-.792 0-2.592.216-5.148.216-7.74 0-1.548-1.296-2.196-2.664-2.196-3.672 0-3.204 2.808-3.204 5.436 0 5.544-.324 11.052-.324 16.596 0 2.52-.504 5.364 2.916 5.364 1.512 0 2.952-.72 2.952-2.412 0-1.26-.108-2.556-.108-3.816 0-1.656 0-3.312.072-4.968.036-1.26.036-1.332 1.332-1.404l4.356-.216c.432-.036.864.36.864.792v5.472c0 .396-.144.792-.144 1.188 0 1.548 1.548 2.448 2.916 2.448 3.6 0 3.096-3.096 3.096-5.688 0-3.348-.216-6.732-.216-10.08 0-1.8.072-3.6.072-5.4 0-1.98-.792-2.88-2.808-2.88-1.296 0-2.988.54-2.988 2.088 0 .576.036 1.188.036 1.764 0 1.764-.072 3.564-.072 5.328 0 .936 0 .864-.9.9-1.548.072-3.06.216-4.608.216zM96.213 34.004c.324 0 1.26 1.872 3.492 1.872 1.188 0 3.168-.684 3.168-2.088 0-.936-.972-1.512-1.188-2.448-.72-3.24-.9-8.784-.9-12.132 0-2.448.216-5.4-3.168-5.4-.864 0-1.728.288-2.34.936-.9.936-.54 2.7-.54 3.888 0 3.744-2.124 10.98-4.248 13.896-.504.72-1.26 1.8-1.98.864-1.764-2.088-1.476-8.532-1.476-11.232 0-2.52-.072-5.004-3.348-5.004-1.224 0-2.844.648-2.844 2.124 0 .432.108.9.144 1.332.072.9.072 1.8.072 2.7.072 5.868 0 14.796 8.028 14.796 4.608 0 6.732-4.104 7.128-4.104zM124.156 32.312V16.04c0-1.836-1.152-2.592-2.916-2.592-1.98 0-3.024 1.008-3.024 2.988 0 .756.108 1.512.108 2.268v5.94c0 .108 0 .396-.18.396-.936-.324-5.652-9.36-10.188-9.36-2.124 0-2.844 1.008-2.844 2.988 0 3.204-.036 6.408-.288 9.612-.144 1.944-.288 3.888-.288 5.832 0 1.872 1.224 2.592 2.952 2.592.288 0 .576-.036.828-.072 1.98-.36 2.088-1.764 2.088-3.456 0-2.664.252-5.364.468-8.028 0-.108 0-.396.216-.396.36.108 4.428 5.904 5.004 6.696 1.26 1.764 2.7 4.32 5.184 4.32 2.412 0 2.88-1.368 2.88-3.456zM130.283 16.868c.432 0 .828.324.828.792v15.948c0 .648-.108 1.296-.108 1.944 0 1.872 1.008 2.844 2.88 2.844.72 0 1.512-.18 2.088-.612.828-.612.792-1.404.792-2.34V17.12c0-.72.324-.432.828-.468l2.52-.108c1.152-.036 2.592-.108 3.348-1.116.216-.288.324-.576.324-.9 0-1.62-1.944-2.088-3.204-2.088-.756 0-1.512.108-2.268.144-3.6.144-7.2.072-10.8.324-1.116.072-2.592.684-2.592 1.98 0 1.404 1.656 2.016 2.844 2.016.828 0 1.692-.036 2.52-.036z"/>
        </g>
        <g fill="#FFF" fill-rule="nonzero">
            <path d="M20.988 34.344c7.344 0 11.592-6.12 11.592-13.032 0-5.688-3.024-9.684-8.964-9.684-1.188 0-2.34.144-3.492.324-5.796.972-8.964 6.984-8.964 12.492 0 5.94 3.816 9.9 9.828 9.9zM21.6 16.02c.504 0 1.008.108 1.512.108.432 0 .828-.108 1.26-.108 1.908 0 2.484 4.032 2.484 5.472 0 3.24-1.872 8.784-5.76 8.784-3.276 0-4.176-3.348-4.176-6.048 0-2.448 1.62-8.208 4.68-8.208zM43.171 27.684c.216 0 .324.108.468.252.828.936 1.512 1.908 2.304 2.808.9 1.008 1.656 1.98 3.06 2.196.216.036.396.036.612.036 1.332 0 2.772-.72 2.772-2.232 0-.504-.144-1.008-.396-1.44-.54-.864-1.476-.972-2.088-1.692-.576-.648-3.6-4.212-3.6-4.896 0-.648 3.888-5.184 4.536-5.904.648-.72 2.088-1.584 2.088-2.628 0-1.368-1.728-2.052-2.844-2.052h-.324c-2.772.288-5.76 5.472-6.444 5.472-.504 0-.828-1.116-.828-1.512 0-.396.144-.792.144-1.224 0-1.332-1.908-1.872-2.988-1.872-1.728 0-2.916 1.008-2.916 2.808 0 2.52 3.06 6.408 3.06 6.912 0 .324-1.116 1.872-1.296 2.16l-1.872 2.88c-.9 1.368-2.916 3.276-2.916 4.968 0 1.404 1.656 1.98 2.844 1.98.864 0 1.836-.288 2.376-1.008.972-1.296 1.836-2.664 2.7-4.032.36-.576.684-1.152 1.08-1.692.108-.144.288-.288.468-.288zM66.657 21.816c-.504 0-.792-.288-.792-.792 0-2.592.216-5.148.216-7.74 0-1.548-1.296-2.196-2.664-2.196-3.672 0-3.204 2.808-3.204 5.436 0 5.544-.324 11.052-.324 16.596 0 2.52-.504 5.364 2.916 5.364 1.512 0 2.952-.72 2.952-2.412 0-1.26-.108-2.556-.108-3.816 0-1.656 0-3.312.072-4.968.036-1.26.036-1.332 1.332-1.404l4.356-.216c.432-.036.864.36.864.792v5.472c0 .396-.144.792-.144 1.188 0 1.548 1.548 2.448 2.916 2.448 3.6 0 3.096-3.096 3.096-5.688 0-3.348-.216-6.732-.216-10.08 0-1.8.072-3.6.072-5.4 0-1.98-.792-2.88-2.808-2.88-1.296 0-2.988.54-2.988 2.088 0 .576.036 1.188.036 1.764 0 1.764-.072 3.564-.072 5.328 0 .936 0 .864-.9.9-1.548.072-3.06.216-4.608.216zM95.213 32.004c.324 0 1.26 1.872 3.492 1.872 1.188 0 3.168-.684 3.168-2.088 0-.936-.972-1.512-1.188-2.448-.72-3.24-.9-8.784-.9-12.132 0-2.448.216-5.4-3.168-5.4-.864 0-1.728.288-2.34.936-.9.936-.54 2.7-.54 3.888 0 3.744-2.124 10.98-4.248 13.896-.504.72-1.26 1.8-1.98.864-1.764-2.088-1.476-8.532-1.476-11.232 0-2.52-.072-5.004-3.348-5.004-1.224 0-2.844.648-2.844 2.124 0 .432.108.9.144 1.332.072.9.072 1.8.072 2.7.072 5.868 0 14.796 8.028 14.796 4.608 0 6.732-4.104 7.128-4.104zM123.156 30.312V14.04c0-1.836-1.152-2.592-2.916-2.592-1.98 0-3.024 1.008-3.024 2.988 0 .756.108 1.512.108 2.268v5.94c0 .108 0 .396-.18.396-.936-.324-5.652-9.36-10.188-9.36-2.124 0-2.844 1.008-2.844 2.988 0 3.204-.036 6.408-.288 9.612-.144 1.944-.288 3.888-.288 5.832 0 1.872 1.224 2.592 2.952 2.592.288 0 .576-.036.828-.072 1.98-.36 2.088-1.764 2.088-3.456 0-2.664.252-5.364.468-8.028 0-.108 0-.396.216-.396.36.108 4.428 5.904 5.004 6.696 1.26 1.764 2.7 4.32 5.184 4.32 2.412 0 2.88-1.368 2.88-3.456zM129.283 14.868c.432 0 .828.324.828.792v15.948c0 .648-.108 1.296-.108 1.944 0 1.872 1.008 2.844 2.88 2.844.72 0 1.512-.18 2.088-.612.828-.612.792-1.404.792-2.34V15.12c0-.72.324-.432.828-.468l2.52-.108c1.152-.036 2.592-.108 3.348-1.116.216-.288.324-.576.324-.9 0-1.62-1.944-2.088-3.204-2.088-.756 0-1.512.108-2.268.144-3.6.144-7.2.072-10.8.324-1.116.072-2.592.684-2.592 1.98 0 1.404 1.656 2.016 2.844 2.016.828 0 1.692-.036 2.52-.036z"/>
        </g>
    </g>
</svg>
