<svg width="47" height="44" viewBox="0 0 47 44" xmlns="http://www.w3.org/2000/svg">
    <g fill="none" fill-rule="evenodd">
        <path d="M40.77 8.18c-2.048-2.236-4.552-4.133-7.508-5.622-2.958-1.486-6.053-2.35-9.856-2.53C22.982.01 22.566 0 22.158 0c-3.186 0-5.892.585-8.513 1.724C10.687 3.01 8.2 4.808 6.183 7.057 4.164 9.305 2.631 11.9 1.579 14.789A26.07 26.07 0 0 0 0 23.76c0 3.078.527 5.92 1.579 8.516 1.052 2.597 2.585 4.783 4.604 6.59C8.2 40.672 10.687 42 13.645 42.92c1.698.53 3.432.867 5.31 1.025 1.877.158 7.43-.037 9.018-.424 1.588-.387 3.103-.704 4.564-1.19.242-.085.485-.166.725-.257 2.956-1.126 5.46-2.554 7.509-4.342 2.048-1.789 3.596-3.848 4.65-6.236C46.474 29.11 47 26.544 47 23.76c0-2.783-.526-5.51-1.579-8.191-1.054-2.68-2.602-5.153-4.65-7.389z" fill="#580088"/>
    </g>
</svg>
