<svg width="931" height="614" viewBox="0 0 931 614" xmlns="http://www.w3.org/2000/svg" xmlns:xlink="http://www.w3.org/1999/xlink">
    <defs>
        <linearGradient x1="88.162%" y1="64.08%" x2="-.906%" y2="60.412%" id="jg7h6l17ta">
            <stop stop-color="#580088" offset="0%"/>
            <stop stop-color="#AD03CF" offset="100%"/>
        </linearGradient>
        <linearGradient x1="51.895%" y1="2.242%" x2="51.895%" y2="98.797%" id="u3ecnd099b">
            <stop stop-color="#231532" offset="0%"/>
            <stop stop-color="#241733" offset="100%"/>
        </linearGradient>
        <linearGradient x1="51.895%" y1="2.242%" x2="51.895%" y2="98.797%" id="zcmccttx6c">
            <stop stop-color="#231532" offset="0%"/>
            <stop stop-color="#241733" offset="100%"/>
        </linearGradient>
        <linearGradient x1="51.895%" y1="2.242%" x2="51.895%" y2="98.797%" id="4oqjuvymdd">
            <stop stop-color="#231532" offset="0%"/>
            <stop stop-color="#241733" offset="100%"/>
        </linearGradient>
        <linearGradient x1="51.895%" y1="2.242%" x2="51.895%" y2="98.797%" id="8ufo8t9bxe">
            <stop stop-color="#231532" offset="0%"/>
            <stop stop-color="#241733" offset="100%"/>
        </linearGradient>
        <linearGradient x1="51.895%" y1="2.242%" x2="51.895%" y2="98.797%" id="gfe8jkbw6f">
            <stop stop-color="#231532" offset="0%"/>
            <stop stop-color="#241733" offset="100%"/>
        </linearGradient>
        <linearGradient x1="51.895%" y1="2.242%" x2="51.895%" y2="98.797%" id="vbdzuoh78g">
            <stop stop-color="#231532" offset="0%"/>
            <stop stop-color="#241733" offset="100%"/>
        </linearGradient>
        <linearGradient x1="51.895%" y1="2.242%" x2="51.895%" y2="98.797%" id="v2tcaovzbh">
            <stop stop-color="#231532" offset="0%"/>
            <stop stop-color="#241733" offset="100%"/>
        </linearGradient>
        <linearGradient x1="51.895%" y1="2.242%" x2="51.895%" y2="98.797%" id="ifbxwt4wxi">
            <stop stop-color="#231532" offset="0%"/>
            <stop stop-color="#241733" offset="100%"/>
        </linearGradient>
        <linearGradient x1="51.895%" y1="2.242%" x2="51.895%" y2="98.797%" id="k1a9op2xkj">
            <stop stop-color="#231532" offset="0%"/>
            <stop stop-color="#241733" offset="100%"/>
        </linearGradient>
        <linearGradient x1="51.895%" y1="2.242%" x2="51.895%" y2="98.797%" id="i1c89o5nrk">
            <stop stop-color="#231532" offset="0%"/>
            <stop stop-color="#241733" offset="100%"/>
        </linearGradient>
        <linearGradient x1="51.895%" y1="2.242%" x2="51.895%" y2="98.797%" id="xk23mmrd4l">
            <stop stop-color="#231532" offset="0%"/>
            <stop stop-color="#241733" offset="100%"/>
        </linearGradient>
        <linearGradient x1="51.895%" y1="2.242%" x2="51.895%" y2="98.797%" id="mpibxsfxtm">
            <stop stop-color="#231532" offset="0%"/>
            <stop stop-color="#241733" offset="100%"/>
        </linearGradient>
        <linearGradient x1="51.895%" y1="2.242%" x2="51.895%" y2="98.797%" id="9d1220a4jn">
            <stop stop-color="#231532" offset="0%"/>
            <stop stop-color="#241733" offset="100%"/>
        </linearGradient>
        <linearGradient x1="51.895%" y1="2.242%" x2="51.895%" y2="98.797%" id="rnf6o0gfvo">
            <stop stop-color="#231532" offset="0%"/>
            <stop stop-color="#241733" offset="100%"/>
        </linearGradient>
        <linearGradient x1="80.702%" y1="79.011%" x2="11.872%" y2="0%" id="ckbv4ox1zq">
            <stop stop-color="#752583" offset="0%"/>
            <stop stop-color="#7F01A8" offset="100%"/>
        </linearGradient>
        <path d="M574.669 542.08c92.57 27.769-28.952-73.171-29.332-104.867-.38-31.696-90.882-92.273-104.447-82.267l.609 2.243.368 1.308c6.728 23.656 48.433 158.273 132.802 183.582z" id="4p2s2q45np"/>
    </defs>
    <g transform="matrix(-1 0 0 1 930.597 0)" fill="none" fill-rule="evenodd">
        <path d="m748.075 196.667-.028.073c-1.93 4.736-88.839 295.099-328.676 351.495-215.768 50.743-347.795-70.942-393.647-193.18-3.012-8.043-4.664-14.548-5.385-19.798-2.794-20.304 16.86-25.533 16.86-25.533-4.237-51.836 70.453 7.865 133.688-72.149 63.236-80.013 161.369-110.693 282.825-64.713 121.456 45.98 159.317 134.777 277.577-10.244l-.32-1.85-.167-1.077C727.87 140.24 716.226 30.245 826.86 25.358l-1.835 5.963-1.13 3.707c-18.257 60.108-26.486 98.686-24.686 115.733 7.116 21.95 36.166 48.603 87.151 79.957-53.268 28.53-99.363 17.179-138.285-34.051z" fill="url(#jg7h6l17ta)"/>
        <path d="m878.984 226.12.635.4a684.25 684.25 0 0 0 6.741 4.198c-53.268 28.53-99.363 17.179-138.285-34.051a70.673 70.673 0 0 1-.727-2.11c-.143-1.248 35.66 37.023 131.636 31.563z" fill="url(#u3ecnd099b)" opacity=".558"/>
        <path d="m826.442 25.377-.506.605c-1.151 1.381-2.273 2.8-3.43 4.165-1.878 2.34-3.633 4.817-5.436 7.194l-5.02 7.474c-1.547 2.582-3.173 5.036-4.598 7.627-1.396 2.615-2.847 5.123-4.132 7.7l-1.883 3.845a126.466 126.466 0 0 0-1.801 3.792l-3.198 7.494-2.714 7.223c-.74 1.828-1.293 3.703-1.857 5.49l-.427 1.32c-.687 2.192-1.447 4.215-1.964 6.227l-.693 2.598-.98 3.592a105.69 105.69 0 0 0-.83 3.24l-2.315 10.301s.397-3.535 1.21-9.72c.416-3.082 1.197-6.701 1.95-10.943l.625-2.845c.76-3.408 1.638-7.108 2.79-10.936l2.359-7.652 2.934-7.913c1.063-2.675 2.279-5.325 3.455-8.093 1.187-2.757 2.653-5.35 4.007-8.112 1.399-2.723 3-5.314 4.524-8.035 1.586-2.656 3.32-5.206 5.027-7.824 1.37-1.851 2.717-3.759 4.109-5.622l1.251-1.661a157.22 157.22 0 0 1 7.543-.531z" fill="url(#zcmccttx6c)" opacity=".558"/>
        <path d="m789.05 32.37-.457.93-1.86 3.91a126.957 126.957 0 0 0-1.777 3.857l-3.146 7.627-2.662 7.354c-.727 1.861-1.266 3.773-1.815 5.593l-.417 1.346c-.67 2.233-1.415 4.292-1.916 6.343l-1 3.91-.623 2.4c-.298 1.16-.57 2.26-.802 3.304l-2.224 10.47c.04-.387.403-3.936 1.114-9.888.388-3.147 1.138-6.838 1.851-11.166l.602-2.902c.73-3.475 1.577-7.249 2.698-11.149l2.3-7.797 2.875-8.057c.485-1.264 1.002-2.521 1.534-3.788a90.647 90.647 0 0 1 5.725-2.297z" fill="url(#4oqjuvymdd)" opacity=".558"/>
        <path d="M251.418 337.55c42.17-34.315 107.69 73.345 225.781 59.045 111.463-13.497 228.92-116.78 265.17-186.046l-1.32 3.694c-22.96 63.612-115.727 285.824-322.075 334.2C203.512 598.962 71.506 477.11 25.576 354.8l-.698-1.902c-2.579-7.18-4.034-13.075-4.702-17.906-2.487-17.958 12.566-24.11 16.087-25.295l4.074 7.036c19.442 33.295 80.734 126.882 211.081 20.815z" fill="url(#8ufo8t9bxe)" opacity=".245"/>
        <path d="M191.266 284.89c4.278-.99 9.27 3.275 11.152 9.53.938 3.12.924 6.145.144 8.515a12.382 12.382 0 0 0-2.915-.781c-3.521-.485-6.486.761-8.295 3.115-1.91-1.721-3.527-4.262-4.429-7.26-1.88-6.256.064-12.128 4.343-13.12z" fill="url(#gfe8jkbw6f)"/>
        <path d="M200.174 295.056c.187.014.441.074.744.163l1.288.4.535.15c.547.15 1.124.267 1.687.326a7.445 7.445 0 0 0 1.618.036c.25-.023.49-.052.713-.09.224-.039.431-.088.62-.14l.51-.158.555-.224.208-.12.177-.118c.102-.07.226-.16.384-.276.61-.45-1.107 3.068-4.071 2.59-2.965-.479-5.093-2.552-4.968-2.539z" fill="url(#vbdzuoh78g)"/>
        <path d="M198.873 292.71c.187.014.441.073.744.162l1.288.4.535.15c.548.15 1.124.267 1.687.326a7.445 7.445 0 0 0 1.618.036c.25-.023.49-.052.713-.09.224-.039.431-.088.62-.14l.51-.158.384-.146c.21-.09.329-.14.94-.592.61-.45-1.107 3.068-4.071 2.59-2.965-.479-5.093-2.552-4.968-2.538zM193.925 289.317c.186.014.44.073.743.163l1.289.399.534.15c.548.15 1.124.267 1.687.326a7.445 7.445 0 0 0 1.618.036c.25-.023.49-.052.714-.09.224-.039.43-.088.62-.14l.51-.158.383-.146.266-.129c.136-.078.325-.205.674-.462.61-.451-1.107 3.067-4.07 2.589-2.965-.479-5.093-2.552-4.968-2.538z" fill="url(#vbdzuoh78g)"/>
        <path d="m22.797 346.335-.924-1.534c8.393 14.175 19.59 28.746 28.418 40.698l2.453 3.341c72.13 98.931 180.928 142.253 294.976 128.971l14.41-1.677 6.454-.8 2.666-.35c20.927-2.807 39.69-6.761 71.479-18.607 42.963-16.01 51.726-50.866 44.34-60.492-13.392-17.455-24.267-34.577-32.103-47.969l-1.577-2.716c-8.166-14.165-7.61-25.96-2.988-25.753 28.05 1.255 102.104 35.348 108.855 62.03l.184.805c.349 1.721 1.102 3.577 2.198 5.547l2.666-2.196c39.66-32.846 84.84-77.506 135.54-133.982l23.36-31.252c-40.457 89.984-133.642 247.816-303.833 287.836-215.768 50.743-347.795-70.942-393.647-193.18a125.446 125.446 0 0 1-2.927-8.72z" fill="url(#v2tcaovzbh)" opacity=".558"/>
        <path d="m190.309 260.67.014.02c.773.747 1.885 1.62 3.219 2.59l2.26 1.627a168.3 168.3 0 0 1 3.737 2.785 78.805 78.805 0 0 1 6.03 5.103 78.34 78.34 0 0 1 2.96 2.869c.958.989 1.89 1.989 2.77 2.996.88 1.007 1.721 1.996 2.506 2.96a85.369 85.369 0 0 1 2.167 2.785l1.773 2.442 1.042 1.505.803 1.217.36.582c.327.541.736 1.257 1.36 2.393l.977 1.795c2.075 3.844-3.331-14.867-13.908-24.164-10.415-9.154-18.257-9.88-18.07-9.504z" fill="url(#ifbxwt4wxi)" opacity=".364"/>
        <path d="M191.359 257.023c.27.14.622.28 1.035.421l1.402.462 1.083.38c.752.271 1.558.61 2.366 1.01.403.194.807.406 1.204.625.397.224.787.455 1.164.696.376.24.74.48 1.082.717l.5.355 1.02.778.685.554.586.51.53.514.663.674c1.062 1.088-2.735-4.827-6.925-6.723-4.19-1.895-6.574-1.06-6.395-.973z" fill="url(#k1a9op2xkj)" opacity=".364"/>
        <path d="M198.99 293.214c.3 1.498-.562 3.07-1.927 3.511-1.365.442-2.713-.415-3.015-1.912-.302-1.5.559-3.069 1.924-3.51 1.365-.442 2.716.411 3.017 1.911M196.527 289.632c.151.564-.079 1.115-.513 1.232-.434.116-.908-.247-1.06-.81-.15-.566.078-1.116.513-1.232.434-.117.909.245 1.06.81" fill="#FFF"/>
        <path d="m63.986 379.945 1.024 2.07.866 1.685.697 1.316c2.042 3.816 4.69 8.377 8.04 13.529l1.567 2.377.617.899.749 1.058c6.945 9.684 23.714 29.583 46.37 47.96l-6.454-4.919c-15.807-9.847-36.312-35.764-42.033-44.616l-1.081-1.698c-5.103-8.113-8.44-14.85-10.588-19.583l-.791-1.793-.53-1.244a79.554 79.554 0 0 1-1.611-4.131l-.156-.473.41 1.06.432 1.056a110.435 110.435 0 0 0 2.472 5.447z" fill="url(#i1c89o5nrk)" opacity=".408"/>
        <path d="m111.358 404.795 1.843 1.921 1.488 1.524c14.116 14.345 34.795 32.178 61.564 47.932a300.902 300.902 0 0 0 48.133 22.902c17.507 6.51 36.334 11.553 55.913 14.968 19.585 3.383 39.933 4.933 60.455 4.666 5.135.01 10.26-.361 15.418-.524l3.866-.156 11.55-1.119c2.607-.19 5.134-.607 7.659-1.032l7.599-1.226c5.07-.826 10.078-2.146 15.12-3.194 20.086-4.74 39.63-11.665 58.323-19.86 18.697-8.2 36.56-17.661 53.417-27.666 33.705-20.065 63.622-41.854 88.37-61.878l3.502-2.848 2.583-2.116c19.649-16.156 35.91-30.725 48.027-42.132l5.587-5.308 2.729-2.62a728.444 728.444 0 0 0 12.861-12.691l3.794-3.893-5.138 5.65-2.892 3.102a542.114 542.114 0 0 1-11.303 11.733l-4.648 4.65-2.93 2.896a910.494 910.494 0 0 1-14.47 13.925l-3.317 3.107-2.592 2.412c-8.313 7.704-17.62 16.044-27.907 24.668l-2.29 1.911c-12.272 10.25-25.813 20.998-40.497 31.768-14.684 10.77-30.5 21.603-47.433 31.735-16.905 10.162-34.837 19.795-53.653 28.178-18.81 8.368-38.513 15.503-58.846 20.399-5.134 1.036-10.185 2.338-15.378 3.155l-7.784 1.208c-2.594.418-5.186.826-7.77 1.001l-7.75.71-3.93.35-3.91.138c-4.466.117-8.908.385-13.355.434l-2.224.005c-20.737.154-41.304-1.531-61.105-5.06-39.047-6.825-74.771-21.606-103.465-38.955l-1.34-.815c-14.517-8.779-27.176-18.343-37.908-27.552-10.178-8.713-18.643-17.11-25.422-24.473l-1.114-1.218A232.965 232.965 0 0 1 96.425 388.1l-.95-1.28-1.072-1.48a148.96 148.96 0 0 1-2.413-3.456l-1.106-1.704.68.98c2.33 3.3 8.796 12.02 19.794 23.636z" fill="url(#xk23mmrd4l)" opacity=".408"/>
        <path d="m164.228 412.787 1.659 1.499 1.287 1.137c10.507 9.184 25.95 20.475 46.295 30.401 11.145 5.453 23.726 10.473 37.47 14.572 13.742 4.111 28.643 7.254 44.253 9.327 14.575 1.916 29.787 2.783 45.247 2.614l3.317-.052c3.112-.026 6.232-.192 9.36-.336l6.267-.263 9.404-.824c2.118-.145 4.186-.438 6.253-.736l6.217-.862c4.149-.58 8.279-1.482 12.419-2.207 16.527-3.258 32.753-7.938 48.37-13.441 15.62-5.507 30.646-11.83 44.892-18.501 28.488-13.377 54.024-27.85 75.271-41.128l3.603-2.264 3.633-2.305 2.456-1.572c16.236-10.425 29.62-19.712 39.46-26.852l6.243-4.566 4.468-3.327 1.538-1.158 7.002-5.39-4.535 3.756-3.031 2.454-2.426 1.94a455.788 455.788 0 0 1-5.809 4.545l-4.374 3.334-2.523 1.902-3.081 2.3a813.573 813.573 0 0 1-11.541 8.416l-1.641 1.172c-7.685 5.481-16.386 11.5-26.055 17.753l-2.249 1.447a761.466 761.466 0 0 1-34.708 21.076c-12.537 7.153-25.995 14.356-40.31 21.11-14.294 6.773-29.386 13.21-45.114 18.836-15.723 5.618-32.09 10.436-48.827 13.798-4.213.718-8.376 1.609-12.624 2.184l-6.366.852c-1.591.22-3.182.437-4.763.589l-11.084.914-3.167.121c-4.22.13-8.425.396-12.618.412-16.768.268-33.284-.668-49.065-2.813-31.052-4.134-58.938-13.465-81.019-24.53l-1.199-.605a204.009 204.009 0 0 1-28.917-17.691c-7.756-5.664-14.121-11.131-19.164-15.919l-.679-.648a140.252 140.252 0 0 1-10.772-11.555l-1.19-1.46-1.093-1.391-.637-.839a64.882 64.882 0 0 1-.178-.239l-.605-.86.897 1.147.916 1.118c2.315 2.777 6.622 7.596 13.167 13.608z" fill="url(#mpibxsfxtm)" opacity=".408"/>
        <path d="m213.687 403.024 1.549 1.185c8.271 6.223 20.77 13.991 37.628 20.715 8.952 3.582 19.105 6.854 30.256 9.488 11.148 2.642 23.29 4.614 36.063 5.852 11.98 1.147 24.534 1.568 37.337 1.277l2.564-.068c2.564-.051 5.142-.198 7.725-.33l5.173-.247 7.782-.662a65.176 65.176 0 0 0 3.466-.348l6.875-.874c3.442-.439 6.882-1.097 10.324-1.635 13.752-2.392 27.316-5.748 40.412-9.656 13.101-3.911 25.745-8.37 37.762-13.056 23.107-9.035 44.008-18.728 61.64-27.683l2.1-1.072c15.733-8.062 28.86-15.36 38.632-21.043l7.228-4.261 4.624-2.782 3.939-2.415c.549-.34 1.042-.647 1.48-.92l2.238-1.405-3.689 2.464-3.69 2.406-2.681 1.72c-.959.61-1.98 1.254-3.066 1.931l-4.115 2.542-2.807 1.713a750.028 750.028 0 0 1-13.098 7.765l-3.332 1.922-2.795 1.595a625.537 625.537 0 0 1-13.69 7.55l-4.308 2.282-4.564 2.384a720.392 720.392 0 0 1-24.915 12.31c-10.63 4.995-22.019 10.033-34.096 14.777-12.061 4.756-24.765 9.292-37.959 13.286-13.189 3.987-26.875 7.438-40.804 9.904-3.502.534-6.968 1.184-10.492 1.621l-5.28.648a128.73 128.73 0 0 1-3.512.41l-9.606.784-9.566.431-1.732.062-1.729.041c-13.825.365-27.392-.09-40.302-1.375-25.33-2.46-47.851-8.464-65.552-15.709l-1.124-.464a162.091 162.091 0 0 1-23.078-11.7c-6.003-3.67-10.922-7.228-14.829-10.368l-.822-.667a95.29 95.29 0 0 1-7.491-6.808l-1.235-1.277-1.116-1.211-.674-.766c-.129-.15-.244-.284-.345-.404l-.492-.61.873.975.703.742c1.805 1.87 5.132 5.068 10.213 9.034z" fill="url(#9d1220a4jn)" opacity=".408"/>
        <path d="m251.06 386.582.12.021c4.17.717 9.79 2.465 16.378 4.832l8.028 2.934 3.164 1.14a610.052 610.052 0 0 0 15.403 5.299l2.216.721c8.773 2.874 18.185 5.45 27.73 7.426l2.866.575c5.25 1.102 10.528 1.976 15.738 2.696 5.215.666 10.36 1.186 15.342 1.462 4.983.277 9.803.456 14.376.482 4.574.025 8.89-.13 12.874-.352l4.924-.352 3.063-.238c.989-.08 1.946-.164 2.87-.25l2.337-.265 3.203-.348 1.298-.157c.21-.027.416-.054.618-.082l8.075-1.148-7.07 1.667c-2.279.531-5.081.969-8.28 1.584-3.21.554-6.853 1.08-10.848 1.494a213.7 213.7 0 0 1-12.947.923c-4.097.151-8.403.232-12.854.062l-1.676-.076c-5.046-.212-10.254-.66-15.541-1.261-5.282-.653-10.64-1.454-15.965-2.512-10.64-2.213-21.146-5.2-30.842-8.524-6.244-2.102-12.12-4.438-17.538-6.659l-10.542-4.33-13.535-5.35c-2.287-.923-3.607-1.505-2.986-1.414z" fill="url(#rnf6o0gfvo)" opacity=".408"/>
        <path d="M110.96 372.119c2.889 7.076 1.928 12.722-2.884 16.938 2.843-5.839 3.804-11.485 2.883-16.938z" fill="#421C4E" fill-rule="nonzero"/>
        <path d="M37.026 306.126v-1.156l1.263 2.648.923 2.037c13.42 29.195 28.721 43.727 74.604 73.152-49.95-13.977-75.408-51.317-80.49-71.547l.89-.433.61-.276c1.82-.721 2.372-.827 2.372-.827a48.807 48.807 0 0 1-.172-3.598z" fill="#421C4E" fill-rule="nonzero"/>
        <use fill="url(#ckbv4ox1zq)" xlink:href="#4p2s2q45np"/>
    </g>
</svg>
