<svg width="28" height="28" viewBox="0 0 28 28" xmlns="http://www.w3.org/2000/svg">
    <g stroke="#FFF" stroke-width="1.75" stroke-linecap="round" stroke-linejoin="round" stroke-dasharray="0,0" fill="none" fill-rule="evenodd">
        <path d="M25.667 5.448c0-1.4-1.144-2.438-2.532-2.321h-.07c-2.45.21-6.172 1.458-8.248 2.765l-.199.128c-.338.21-.898.21-1.236 0l-.292-.175c-2.077-1.295-5.787-2.532-8.237-2.73-1.388-.117-2.52.933-2.52 2.322V19.53c0 1.12.91 2.17 2.03 2.31l.339.047c2.531.338 6.44 1.621 8.68 2.846l.046.024c.315.175.817.175 1.12 0 2.24-1.237 6.16-2.532 8.704-2.87l.385-.047c1.12-.14 2.03-1.19 2.03-2.31V5.448zM14 6.405v17.5M9.042 9.905H6.417M9.917 13.405h-3.5"/>
    </g>
</svg>
