<svg width="100" height="100" viewBox="0 0 100 100" xmlns="http://www.w3.org/2000/svg">
    <g stroke="#FFF" fill="none" fill-rule="evenodd">
        <circle stroke-width="4" fill="#CE1259" cx="50" cy="50" r="48"/>
        <g stroke-linecap="round" stroke-linejoin="round" stroke-dasharray="0,0">
            <path stroke-width="3" d="M42 30v6M58 30v6M33 44.18h34M62 72a8 8 0 1 1 0-16 8 8 0 0 1 0 16z"/>
            <g stroke-width="3">
                <path d="M64.14 66.22 59.9 62M64.1 62.04l-4.24 4.24"/>
            </g>
            <path d="M68 58.72A7.967 7.967 0 0 0 62 56c-4.42 0-8 3.58-8 8 0 1.5.42 2.92 1.16 4.12.42.72.96 1.36 1.58 1.88H42c-7 0-10-4-10-10V43c0-6 3-10 10-10h16c7 0 10 4 10 10v15.72z" stroke-width="3"/>
            <path stroke-width="4" d="M49.991 53.4h.018M42.589 53.4h.018M42.589 59.4h.018"/>
        </g>
    </g>
</svg>
