<svg width="64" height="85" viewBox="0 0 64 85" xmlns="http://www.w3.org/2000/svg" xmlns:xlink="http://www.w3.org/1999/xlink">
    <defs>
        <linearGradient x1="51.895%" y1="2.242%" x2="51.895%" y2="98.797%" id="rwjm583sre">
            <stop stop-color="#231532" offset="0%"/>
            <stop stop-color="#241733" offset="100%"/>
        </linearGradient>
        <linearGradient x1="51.895%" y1="2.242%" x2="51.895%" y2="98.797%" id="46xqn1boyf">
            <stop stop-color="#231532" offset="0%"/>
            <stop stop-color="#241733" offset="100%"/>
        </linearGradient>
        <linearGradient x1="50%" y1="98.337%" x2="50%" y2="0%" id="cgbyli0zmi">
            <stop stop-color="#580088" offset="0%"/>
            <stop stop-color="#AD03CF" offset="100%"/>
        </linearGradient>
        <path d="M28.176 0h-.032C16.944 0 4.124 6.4.794 20.682-2.92 36.635 7.106 50.145 16.181 58.647 19.545 61.8 22.177 64 28.16 64s8.646-2.2 11.978-5.353c9.075-8.502 19.101-21.981 15.389-37.934C52.195 6.43 39.408 0 28.176 0z" id="qd8qcnq0xa"/>
        <path d="M63.507.233c-.416-.347-1.032-.26-1.52-.029-.888.434-1.504 1.288-2.22 1.982-1.161 1.1-2.652 1.81-4.2 2.229-6.162 1.678-13.084-.71-18.601 3.125-1.405.97-2.28 2.17-3.21 3.43l-.173.231c-.286.377-.83.999-1.49 1.086h-.23c-.687-.087-1.232-.71-1.518-1.086l-.173-.231c-.931-1.26-1.805-2.46-3.21-3.43-5.517-3.834-12.439-1.432-18.601-3.125-1.534-.42-3.039-1.114-4.2-2.229C3.446 1.492 2.83.638 1.942.204.577-.46-.08.607.007 1.87.154 4 .978 6.046 2.146 7.827c2.413 3.682 6.093 6.319 9.611 8.83 3.081 2.199 6.22 4.399 8.742 7.235 3.482 3.936 4.686 8.812 4.858 13.833.1 2.75-.114 5.542-.444 8.248-.559 4.63-1.548 9.615-2.422 14.187h18.917c-.874-4.572-1.863-9.556-2.422-14.187-.415-3.444-.659-7.018-.3-10.462.43-4.24 1.748-8.277 4.714-11.634 3.582-4.053 8.337-6.755 12.568-10.027.762-.589 1.507-1.2 2.222-1.847 1.58-1.432 3.015-3.063 4.075-4.928.929-1.634 2.023-4.07 1.665-6.007-.062-.336-.192-.629-.423-.835z" id="u3r6u87eqd"/>
        <path d="M0 0v20.48c3.17 2.344 4.715 3.692 4.633 4.042-3.712 15.953 6.314 28.183 15.39 36.685C23.384 64.36 26.016 66.56 32 66.56c5.983 0 8.646-2.2 11.978-5.353 9.075-8.502 19.101-20.701 15.389-36.654-.16-.687 1.384-2.045 4.633-4.073V0H0z" id="h5ontb3w8g"/>
        <filter x="-6.2%" y="-5%" width="112.5%" height="119.9%" filterUnits="objectBoundingBox" id="swmxj811zc">
            <feOffset dy="5" in="SourceAlpha" result="shadowOffsetOuter1"/>
            <feGaussianBlur stdDeviation=".5" in="shadowOffsetOuter1" result="shadowBlurOuter1"/>
            <feColorMatrix values="0 0 0 0 0.0795957957 0 0 0 0 0.00125383773 0 0 0 0 0.122763813 0 0 0 0.216045673 0" in="shadowBlurOuter1"/>
        </filter>
    </defs>
    <g fill="none" fill-rule="evenodd">
        <ellipse fill-opacity=".089" fill="#31004C" cx="32" cy="79.36" rx="15.36" ry="5.12"/>
        <g transform="translate(0 1.28)">
            <path d="M32.016 2.56h-.032c-11.2 0-24.02 6.4-27.35 20.682C.92 39.195 10.946 52.705 20.021 61.207 23.385 64.36 26.017 66.56 32 66.56s8.646-2.2 11.978-5.353c9.075-8.502 19.101-21.981 15.389-37.934C56.035 8.99 43.248 2.56 32.016 2.56z" fill="#FFF"/>
            <g transform="translate(3.84 2.56)">
                <mask id="fvb3cfatmb" fill="#fff">
                    <use xlink:href="#qd8qcnq0xa"/>
                </mask>
                <g mask="url(#fvb3cfatmb)">
                    <use fill="#000" filter="url(#swmxj811zc)" xlink:href="#u3r6u87eqd" transform="translate(-3.84 3.84)"/>
                    <path d="M63.999 1.776c-1.256 5.39-7.552 9.359-12.12 12.32-3.08 2.01-5.933 3.733-8.455 6.337-3.75 3.878-4.97 10.74-4.827 16.114.024-.346.052-.692.088-1.036.43-4.24 1.749-8.277 4.715-11.634 3.582-4.053 8.337-6.755 12.568-10.027.762-.589 1.507-1.2 2.222-1.847 1.58-1.432 3.015-3.063 4.075-4.928.819-1.44 1.766-3.503 1.734-5.3" fill="url(#rwjm583sre)" opacity=".558" transform="translate(-3.84 3.84)"/>
                    <path d="M20.638 20.433c-2.522-2.604-5.374-4.326-8.455-6.338C7.542 11.087 1.112 7.038.003 1.515c-.005.116-.004.234.005.355.146 2.13.97 4.176 2.138 5.957 2.413 3.682 6.093 6.318 9.611 8.83 3.081 2.2 6.22 4.399 8.742 7.235 3.482 3.936 4.686 8.812 4.858 13.833.003.07.003.14.005.21l.02.188c.447-5.535-.617-13.421-4.744-17.69" fill="url(#46xqn1boyf)" opacity=".558" transform="translate(-3.84 3.84)"/>
                </g>
            </g>
            <mask id="f5mwzcj1kh" fill="#fff">
                <use xlink:href="#h5ontb3w8g"/>
            </mask>
            <g mask="url(#f5mwzcj1kh)">
                <path d="M63.507.233c-.416-.347-1.032-.26-1.52-.029-.888.434-1.504 1.288-2.22 1.982-1.161 1.1-2.652 1.81-4.2 2.229-6.162 1.678-13.084-.71-18.601 3.125-1.405.97-2.28 2.17-3.21 3.43l-.173.231c-.286.377-.83.999-1.49 1.086h-.23c-.687-.087-1.232-.71-1.518-1.086l-.173-.231c-.931-1.26-1.805-2.46-3.21-3.43-5.517-3.834-12.439-1.432-18.601-3.125-1.534-.42-3.039-1.114-4.2-2.229C3.446 1.492 2.83.638 1.942.204.577-.46-.08.607.007 1.87.154 4 .978 6.046 2.146 7.827c2.413 3.682 6.093 6.319 9.611 8.83 3.081 2.199 6.22 4.399 8.742 7.235 3.482 3.936 4.686 8.812 4.858 13.833.1 2.75-.114 5.542-.444 8.248-.559 4.63-1.548 9.615-2.422 14.187h18.917c-.874-4.572-1.863-9.556-2.422-14.187-.415-3.444-.659-7.018-.3-10.462.43-4.24 1.748-8.277 4.714-11.634 3.582-4.053 8.337-6.755 12.568-10.027.762-.589 1.507-1.2 2.222-1.847 1.58-1.432 3.015-3.063 4.075-4.928.929-1.634 2.023-4.07 1.665-6.007-.062-.336-.192-.629-.423-.835z" fill="url(#cgbyli0zmi)" transform="translate(0 6.4)"/>
                <path d="M63.999 1.776c-1.256 5.39-7.552 9.359-12.12 12.32-3.08 2.01-5.933 3.733-8.455 6.337-3.75 3.878-4.97 10.74-4.827 16.114.024-.346.052-.692.088-1.036.43-4.24 1.749-8.277 4.715-11.634 3.582-4.053 8.337-6.755 12.568-10.027.762-.589 1.507-1.2 2.222-1.847 1.58-1.432 3.015-3.063 4.075-4.928.819-1.44 1.766-3.503 1.734-5.3" fill="url(#rwjm583sre)" opacity=".558" transform="translate(0 6.4)"/>
                <path d="M20.638 20.433c-2.522-2.604-5.374-4.326-8.455-6.338C7.542 11.087 1.112 7.038.003 1.515c-.005.116-.004.234.005.355.146 2.13.97 4.176 2.138 5.957 2.413 3.682 6.093 6.318 9.611 8.83 3.081 2.2 6.22 4.399 8.742 7.235 3.482 3.936 4.686 8.812 4.858 13.833.003.07.003.14.005.21l.02.188c.447-5.535-.617-13.421-4.744-17.69" fill="url(#46xqn1boyf)" opacity=".558" transform="translate(0 6.4)"/>
            </g>
        </g>
    </g>
</svg>
